<?xml version="1.0" standalone="no"?>
<!DOCTYPE svg PUBLIC "-//W3C//DTD SVG 20010904//EN"
 "http://www.w3.org/TR/2001/REC-SVG-20010904/DTD/svg10.dtd">
<svg version="1.0" xmlns="http://www.w3.org/2000/svg"
 width="225.000000pt" height="225.000000pt" viewBox="0 0 225.000000 225.000000"
 preserveAspectRatio="xMidYMid meet">
<metadata>
Created by potrace 1.10, written by Peter Selinger 2001-2011
</metadata>
<g transform="translate(0.000000,225.000000) scale(0.100000,-0.100000)"
fill="#000000" stroke="none">
<path d="M810 1699 c-145 -148 -268 -276 -273 -285 -22 -39 36 15 282 259 224
224 260 255 271 242 11 -14 -21 -50 -238 -268 -139 -139 -259 -263 -268 -276
-39 -56 28 6 290 267 l273 271 -31 30 c-18 17 -34 30 -36 30 -3 -1 -124 -122
-270 -270z"/>
<path d="M1445 1828 c-49 -28 -142 -81 -205 -118 -63 -37 -137 -80 -165 -95
-121 -66 -423 -240 -448 -257 -16 -11 -26 -22 -24 -25 11 -10 106 42 801 438
65 38 123 66 128 62 21 -12 -17 -37 -477 -298 -209 -119 -343 -200 -377 -227
-32 -27 -32 -28 -5 -18 15 5 47 21 70 34 42 23 156 88 219 125 18 10 161 92
318 181 157 90 289 166 293 170 6 5 -29 82 -36 79 -1 0 -42 -23 -92 -51z"/>
<path d="M537 1642 c-58 -103 -103 -189 -101 -191 10 -10 43 37 120 171 45 78
88 147 97 152 44 28 25 -16 -95 -229 -25 -44 -49 -91 -52 -105 -7 -25 -7 -25
17 3 13 16 46 68 72 115 27 48 66 116 87 151 21 34 38 66 38 70 0 3 -18 16
-39 28 l-39 22 -105 -187z"/>
<path d="M1760 1555 c-47 -12 -166 -44 -265 -70 -99 -25 -227 -59 -285 -75
-58 -16 -159 -42 -225 -60 -226 -59 -305 -83 -305 -92 0 -16 37 -7 608 143
485 128 586 149 555 118 -5 -5 -187 -57 -404 -114 -217 -58 -425 -113 -464
-124 -229 -62 -271 -74 -280 -82 -15 -15 37 -10 116 10 213 56 423 111 494
130 44 12 132 36 195 52 63 17 149 40 190 51 41 11 102 27 136 35 l60 14 -10
45 c-6 24 -15 44 -21 43 -5 0 -48 -11 -95 -24z"/>
<path d="M340 1405 c0 -105 0 -106 -45 -195 l-45 -90 45 -89 c45 -88 45 -88
45 -195 l0 -106 40 0 c36 0 40 3 40 25 0 26 -14 33 -26 14 -14 -23 -23 9 -30
101 -5 79 -12 107 -40 167 -19 39 -34 78 -34 86 0 8 17 50 37 93 33 69 38 89
41 171 4 86 11 108 27 83 9 -15 25 -2 25 21 0 16 -7 19 -40 19 l-40 0 0 -105z"/>
<path d="M738 1163 c-16 -2 -28 -9 -28 -14 0 -5 245 -9 625 -9 549 0 625 -2
625 -15 0 -13 -52 -15 -402 -17 -332 -1 -719 -5 -838 -8 -20 0 -22 -2 -10 -10
9 -6 257 -10 650 -10 l635 0 1 45 1 45 -616 -1 c-339 -1 -628 -4 -643 -6z"/>
<path d="M706 1051 c-8 -13 72 -37 489 -146 584 -154 626 -165 643 -178 50
-39 -87 -10 -538 113 -165 45 -496 132 -520 136 -14 2 -44 8 -67 12 -71 15
-40 -13 35 -32 37 -9 101 -25 142 -37 113 -30 408 -108 752 -198 108 -28 203
-54 211 -57 10 -4 16 6 21 35 3 23 7 44 9 48 1 4 -36 17 -83 28 -84 22 -387
101 -675 177 -82 22 -202 53 -265 69 -63 16 -122 32 -132 35 -9 2 -19 0 -22
-5z"/>
<path d="M646 959 c8 -13 95 -70 184 -120 83 -46 654 -375 680 -392 19 -11 28
-37 14 -37 -4 0 -47 23 -98 52 -50 28 -140 79 -201 113 -92 53 -256 145 -540
306 -47 27 -101 40 -79 20 8 -8 284 -171 289 -171 1 0 147 -83 324 -184 l322
-184 19 39 c23 43 24 49 11 49 -5 0 -80 41 -168 92 -87 50 -174 100 -193 111
-19 11 -134 76 -255 146 -309 178 -325 186 -309 160z"/>
<path d="M580 879 c0 -6 116 -128 258 -271 141 -142 257 -264 257 -271 0 -31
-42 4 -243 204 -254 252 -310 304 -319 295 -4 -3 119 -132 272 -286 l278 -279
33 32 33 32 -257 258 c-259 260 -312 309 -312 286z"/>
<path d="M500 815 c0 -11 63 -130 116 -220 29 -49 54 -99 56 -110 5 -33 -24
-23 -46 15 -46 83 -131 228 -150 257 -35 54 -48 47 -20 -10 40 -79 185 -327
191 -327 8 0 73 41 73 45 0 5 -144 256 -176 307 -22 34 -44 56 -44 43z"/>
</g>
</svg>
